<svg xmlns="http://www.w3.org/2000/svg" width="31" height="26" fill="none" viewBox="0 0 31 26"><path fill="#fff" d="M31 2.90628C29.8375 3.48753 28.675 3.68128 27.3188 3.87503C28.675 3.10003 29.6438 1.93753 30.0313 0.38753C28.8688 1.16253 27.5125 1.55003 25.9625 1.93753C24.8 0.77503 23.0563 3.05176e-05 21.3125 3.05176e-05C17.2438 3.05176e-05 14.1438 3.87503 15.1125 7.75003C9.88125 7.55628 5.23125 5.03753 1.9375 1.16253C0.19375 4.06878 1.1625 7.75003 3.875 9.68753C2.90625 9.68753 1.9375 9.30003 0.96875 8.91253C0.96875 11.8188 3.1 14.5313 6.00625 15.3063C5.0375 15.5 4.06875 15.6938 3.1 15.5C3.875 18.0188 6.2 19.9563 9.10625 19.9563C6.78125 21.7 3.29375 22.6688 0 22.2813C2.90625 24.025 6.2 25.1875 9.6875 25.1875C21.5063 25.1875 28.0938 15.3063 27.7063 6.20003C29.0625 5.42503 30.225 4.26253 31 2.90628Z"/></svg>